<?xml version="1.0" encoding="UTF-8"?>
<svg id="_图层_1" data-name="图层 1" xmlns="http://www.w3.org/2000/svg" xmlns:xlink="http://www.w3.org/1999/xlink" viewBox="0 0 228 228">
  <defs>
    <style>
      .cls-1 {
        fill: url(#_未命名的渐变_8);
      }

      .cls-1, .cls-2, .cls-3, .cls-4, .cls-5, .cls-6, .cls-7, .cls-8, .cls-9, .cls-10, .cls-11, .cls-12, .cls-13, .cls-14, .cls-15, .cls-16, .cls-17, .cls-18, .cls-19, .cls-20, .cls-21, .cls-22, .cls-23, .cls-24, .cls-25, .cls-26, .cls-27, .cls-28, .cls-29, .cls-30, .cls-31, .cls-32, .cls-33 {
        stroke-width: 0px;
      }

      .cls-2 {
        fill: url(#_未命名的渐变_8-2);
      }

      .cls-3 {
        fill: url(#_未命名的渐变_8-19);
      }

      .cls-4 {
        fill: url(#_未命名的渐变_5);
      }

      .cls-5 {
        fill: url(#_未命名的渐变_96);
      }

      .cls-6 {
        fill: url(#_未命名的渐变_112);
      }

      .cls-7 {
        fill: url(#_未命名的渐变_110-2);
      }

      .cls-8 {
        fill: url(#_未命名的渐变_8-5);
      }

      .cls-9 {
        fill: url(#_未命名的渐变_8-11);
      }

      .cls-10 {
        fill: url(#_未命名的渐变_8-16);
      }

      .cls-11 {
        fill: url(#_未命名的渐变_8-8);
      }

      .cls-12 {
        fill: url(#_未命名的渐变_85-2);
      }

      .cls-13 {
        fill: url(#_未命名的渐变_85);
      }

      .cls-14 {
        fill: url(#_未命名的渐变_8-17);
      }

      .cls-15 {
        fill: url(#_未命名的渐变_8-3);
      }

      .cls-16 {
        fill: url(#_未命名的渐变_101);
      }

      .cls-17 {
        fill: url(#_未命名的渐变_110);
      }

      .cls-18 {
        fill: url(#_未命名的渐变_87);
      }

      .cls-19 {
        fill: url(#_未命名的渐变_82);
      }

      .cls-20 {
        fill: url(#_未命名的渐变_8-13);
      }

      .cls-21 {
        fill: url(#_未命名的渐变_72);
      }

      .cls-22 {
        fill: url(#_未命名的渐变_8-20);
      }

      .cls-23 {
        fill: url(#_未命名的渐变_8-12);
      }

      .cls-24 {
        fill: url(#_未命名的渐变_8-18);
      }

      .cls-25 {
        fill: url(#_未命名的渐变_8-9);
      }

      .cls-26 {
        fill: url(#_未命名的渐变_8-10);
      }

      .cls-27 {
        fill: url(#_未命名的渐变_8-7);
      }

      .cls-28 {
        fill: url(#_未命名的渐变_8-14);
      }

      .cls-29 {
        fill: url(#_未命名的渐变_8-15);
      }

      .cls-30 {
        fill: url(#_未命名的渐变_8-4);
      }

      .cls-31 {
        fill: url(#_未命名的渐变_110-3);
      }

      .cls-32 {
        fill: url(#_未命名的渐变_96-2);
      }

      .cls-33 {
        fill: url(#_未命名的渐变_8-6);
      }
    </style>
    <linearGradient id="_未命名的渐变_5" data-name="未命名的渐变 5" x1="113.78" y1="-.12" x2="114.23" y2="230.99" gradientUnits="userSpaceOnUse">
      <stop offset="0" stop-color="#3b8eb7"/>
      <stop offset=".81" stop-color="#163359"/>
    </linearGradient>
    <linearGradient id="_未命名的渐变_8" data-name="未命名的渐变 8" x1="68.67" y1="205.56" x2="68.67" y2="179.33" gradientUnits="userSpaceOnUse">
      <stop offset="0" stop-color="#edf7fa"/>
      <stop offset=".81" stop-color="#d6e9f3"/>
    </linearGradient>
    <linearGradient id="_未命名的渐变_8-2" data-name="未命名的渐变 8" x1="91.33" x2="91.33" xlink:href="#_未命名的渐变_8"/>
    <linearGradient id="_未命名的渐变_8-3" data-name="未命名的渐变 8" x1="114" x2="114" xlink:href="#_未命名的渐变_8"/>
    <linearGradient id="_未命名的渐变_8-4" data-name="未命名的渐变 8" x1="136.67" x2="136.67" xlink:href="#_未命名的渐变_8"/>
    <linearGradient id="_未命名的渐变_8-5" data-name="未命名的渐变 8" x1="159.33" x2="159.33" xlink:href="#_未命名的渐变_8"/>
    <linearGradient id="_未命名的渐变_8-6" data-name="未命名的渐变 8" x1="159.03" y1="21.48" x2="159.47" y2="43.26" xlink:href="#_未命名的渐变_8"/>
    <linearGradient id="_未命名的渐变_8-7" data-name="未命名的渐变 8" x1="136.37" y1="21.94" x2="136.82" y2="43.72" xlink:href="#_未命名的渐变_8"/>
    <linearGradient id="_未命名的渐变_8-8" data-name="未命名的渐变 8" x1="113.72" y1="22.41" x2="114.16" y2="44.18" xlink:href="#_未命名的渐变_8"/>
    <linearGradient id="_未命名的渐变_8-9" data-name="未命名的渐变 8" x1="91.06" y1="22.87" x2="91.5" y2="44.65" xlink:href="#_未命名的渐变_8"/>
    <linearGradient id="_未命名的渐变_8-10" data-name="未命名的渐变 8" x1="68.4" y1="23.33" x2="68.85" y2="45.11" xlink:href="#_未命名的渐变_8"/>
    <linearGradient id="_未命名的渐变_8-11" data-name="未命名的渐变 8" x1="22.06" y1="70" x2="42.06" y2="70" xlink:href="#_未命名的渐变_8"/>
    <linearGradient id="_未命名的渐变_8-12" data-name="未命名的渐变 8" x1="22.06" y1="92.67" x2="42.06" y2="92.67" xlink:href="#_未命名的渐变_8"/>
    <linearGradient id="_未命名的渐变_8-13" data-name="未命名的渐变 8" x1="22.06" y1="115.33" x2="42.06" y2="115.33" xlink:href="#_未命名的渐变_8"/>
    <linearGradient id="_未命名的渐变_8-14" data-name="未命名的渐变 8" x1="22.06" y1="138" x2="42.06" y2="138" xlink:href="#_未命名的渐变_8"/>
    <linearGradient id="_未命名的渐变_8-15" data-name="未命名的渐变 8" x1="22.06" y1="160.67" x2="42.06" y2="160.67" xlink:href="#_未命名的渐变_8"/>
    <linearGradient id="_未命名的渐变_8-16" data-name="未命名的渐变 8" x1="212.33" y1="159.33" x2="188.77" y2="159.33" xlink:href="#_未命名的渐变_8"/>
    <linearGradient id="_未命名的渐变_8-17" data-name="未命名的渐变 8" x1="212.33" y1="136.67" x2="188.77" y2="136.67" xlink:href="#_未命名的渐变_8"/>
    <linearGradient id="_未命名的渐变_8-18" data-name="未命名的渐变 8" x1="212.33" y1="114" x2="188.77" y2="114" xlink:href="#_未命名的渐变_8"/>
    <linearGradient id="_未命名的渐变_8-19" data-name="未命名的渐变 8" x1="212.33" y1="91.33" x2="188.77" y2="91.33" xlink:href="#_未命名的渐变_8"/>
    <linearGradient id="_未命名的渐变_8-20" data-name="未命名的渐变 8" x1="212.33" y1="68.67" x2="188.77" y2="68.67" xlink:href="#_未命名的渐变_8"/>
    <linearGradient id="_未命名的渐变_96" data-name="未命名的渐变 96" x1="74" y1="142.47" x2="74.29" y2="158.77" gradientUnits="userSpaceOnUse">
      <stop offset=".18" stop-color="#f7da57"/>
      <stop offset="1" stop-color="#f49927"/>
    </linearGradient>
    <linearGradient id="_未命名的渐变_101" data-name="未命名的渐变 101" x1="79.56" y1="102.44" x2="79.56" y2="179.19" gradientUnits="userSpaceOnUse">
      <stop offset=".18" stop-color="#feec7f"/>
      <stop offset="1" stop-color="#eeb739"/>
    </linearGradient>
    <linearGradient id="_未命名的渐变_96-2" data-name="未命名的渐变 96" x1="81.88" y1="105.66" x2="77.88" y2="179.44" xlink:href="#_未命名的渐变_96"/>
    <linearGradient id="_未命名的渐变_85" data-name="未命名的渐变 85" x1="153.49" y1="72.44" x2="153.49" y2="87.11" gradientUnits="userSpaceOnUse">
      <stop offset=".1" stop-color="#a7d86d"/>
      <stop offset="1" stop-color="#3aa55f"/>
    </linearGradient>
    <linearGradient id="_未命名的渐变_87" data-name="未命名的渐变 87" x1="148.94" y1="48.67" x2="148.49" y2="134.01" gradientUnits="userSpaceOnUse">
      <stop offset=".1" stop-color="#d3f2ae"/>
      <stop offset="1" stop-color="#65bf87"/>
    </linearGradient>
    <linearGradient id="_未命名的渐变_85-2" data-name="未命名的渐变 85" x1="149.15" y1="50" x2="148.27" y2="119.33" xlink:href="#_未命名的渐变_85"/>
    <linearGradient id="_未命名的渐变_82" data-name="未命名的渐变 82" x1="84.43" y1="46.98" x2="87.99" y2="101.65" gradientUnits="userSpaceOnUse">
      <stop offset="0" stop-color="#a2edf7"/>
      <stop offset=".81" stop-color="#4eadf7"/>
    </linearGradient>
    <linearGradient id="_未命名的渐变_110" data-name="未命名的渐变 110" x1="148.3" y1="113.48" x2="151.27" y2="188.74" gradientUnits="userSpaceOnUse">
      <stop offset="0" stop-color="#e5cd93"/>
      <stop offset=".81" stop-color="#f37146"/>
    </linearGradient>
    <linearGradient id="_未命名的渐变_110-2" data-name="未命名的渐变 110" x1="148.07" y1="113.49" x2="151.03" y2="188.75" xlink:href="#_未命名的渐变_110"/>
    <linearGradient id="_未命名的渐变_110-3" data-name="未命名的渐变 110" x1="140.02" y1="113.8" x2="142.99" y2="189.06" xlink:href="#_未命名的渐变_110"/>
    <linearGradient id="_未命名的渐变_112" data-name="未命名的渐变 112" x1="139.85" y1="116.57" x2="143.4" y2="184.71" gradientUnits="userSpaceOnUse">
      <stop offset="0" stop-color="#f4a43a"/>
      <stop offset=".81" stop-color="#eb512d"/>
    </linearGradient>
    <linearGradient id="_未命名的渐变_72" data-name="未命名的渐变 72" x1="86" y1="52.06" x2="87.78" y2="99.62" gradientUnits="userSpaceOnUse">
      <stop offset="0" stop-color="#67cee9"/>
      <stop offset=".81" stop-color="#2d87cd"/>
    </linearGradient>
  </defs>
  <rect class="cls-4" width="228" height="228" rx="50.81" ry="50.81"/>
  <g>
    <path class="cls-1" d="M73.74,186.81h-10.15c-.27,0-.48.22-.48.48v10.15c0,.27.22.48.48.48h1.7c.27,0,.48.22.48.48v5.33c0,1.58,1.18,3,2.76,3.07,1.65.07,3.02-1.25,3.02-2.89v-5.52c0-.27.22-.48.48-.48h1.7c.27,0,.48-.22.48-.48v-10.15c0-.27-.22-.48-.48-.48Z"/>
    <path class="cls-2" d="M96.41,186.81h-10.15c-.27,0-.48.22-.48.48v10.15c0,.27.22.48.48.48h1.7c.27,0,.48.22.48.48v5.33c0,1.58,1.18,3,2.76,3.07,1.65.07,3.02-1.25,3.02-2.89v-5.52c0-.27.22-.48.48-.48h1.7c.27,0,.48-.22.48-.48v-10.15c0-.27-.22-.48-.48-.48Z"/>
    <path class="cls-15" d="M119.07,186.81h-10.15c-.27,0-.48.22-.48.48v10.15c0,.27.22.48.48.48h1.7c.27,0,.48.22.48.48v5.33c0,1.58,1.18,3,2.76,3.07,1.66.07,3.02-1.25,3.02-2.89v-5.52c0-.27.22-.48.48-.48h1.7c.27,0,.48-.22.48-.48v-10.15c0-.27-.22-.48-.48-.48Z"/>
    <path class="cls-30" d="M141.74,186.81h-10.15c-.27,0-.48.22-.48.48v10.15c0,.27.22.48.48.48h1.7c.27,0,.48.22.48.48v5.33c0,1.58,1.18,3,2.76,3.07,1.65.07,3.02-1.25,3.02-2.89v-5.52c0-.27.22-.48.48-.48h1.7c.27,0,.48-.22.48-.48v-10.15c0-.27-.22-.48-.48-.48Z"/>
    <path class="cls-8" d="M164.41,186.81h-10.15c-.27,0-.48.22-.48.48v10.15c0,.27.22.48.48.48h1.7c.27,0,.48.22.48.48v5.33c0,1.58,1.18,3,2.76,3.07,1.65.07,3.02-1.25,3.02-2.89v-5.52c0-.27.22-.48.48-.48h1.7c.27,0,.48-.22.48-.48v-10.15c0-.27-.22-.48-.48-.48Z"/>
  </g>
  <g>
    <path class="cls-33" d="M154.26,41.89h10.15c.27,0,.48-.22.48-.48v-10.15c0-.27-.22-.48-.48-.48h-1.7c-.27,0-.48-.22-.48-.48v-5.33c0-1.58-1.18-3-2.76-3.07-1.65-.07-3.02,1.25-3.02,2.89v5.52c0,.27-.22.48-.48.48h-1.7c-.27,0-.48.22-.48.48v10.15c0,.27.22.48.48.48Z"/>
    <path class="cls-27" d="M131.59,41.89h10.15c.27,0,.48-.22.48-.48v-10.15c0-.27-.22-.48-.48-.48h-1.7c-.27,0-.48-.22-.48-.48v-5.33c0-1.58-1.18-3-2.76-3.07-1.65-.07-3.02,1.25-3.02,2.89v5.52c0,.27-.22.48-.48.48h-1.7c-.27,0-.48.22-.48.48v10.15c0,.27.22.48.48.48Z"/>
    <path class="cls-11" d="M108.93,41.89h10.15c.27,0,.48-.22.48-.48v-10.15c0-.27-.22-.48-.48-.48h-1.7c-.27,0-.48-.22-.48-.48v-5.33c0-1.58-1.18-3-2.76-3.07-1.65-.07-3.02,1.25-3.02,2.89v5.52c0,.27-.22.48-.48.48h-1.7c-.27,0-.48.22-.48.48v10.15c0,.27.22.48.48.48Z"/>
    <path class="cls-25" d="M86.26,41.89h10.15c.27,0,.48-.22.48-.48v-10.15c0-.27-.22-.48-.48-.48h-1.7c-.27,0-.48-.22-.48-.48v-5.33c0-1.58-1.18-3-2.76-3.07-1.65-.07-3.02,1.25-3.02,2.89v5.52c0,.27-.22.48-.48.48h-1.7c-.27,0-.48.22-.48.48v10.15c0,.27.22.48.48.48Z"/>
    <path class="cls-26" d="M63.59,41.89h10.15c.27,0,.48-.22.48-.48v-10.15c0-.27-.22-.48-.48-.48h-1.7c-.27,0-.48-.22-.48-.48v-5.33c0-1.58-1.18-3-2.76-3.07-1.65-.07-3.02,1.25-3.02,2.89v5.52c0,.27-.22.48-.48.48h-1.7c-.27,0-.48.22-.48.48v10.15c0,.27.22.48.48.48Z"/>
  </g>
  <g>
    <path class="cls-9" d="M42.06,75.07v-10.15c0-.27-.22-.48-.48-.48h-10.15c-.27,0-.48.22-.48.48v1.7c0,.27-.22.48-.48.48h-5.33c-1.58,0-3,1.18-3.07,2.76-.07,1.65,1.25,3.02,2.89,3.02h5.52c.27,0,.48.22.48.48v1.7c0,.27.22.48.48.48h10.15c.27,0,.48-.22.48-.48Z"/>
    <path class="cls-23" d="M42.06,97.74v-10.15c0-.27-.22-.48-.48-.48h-10.15c-.27,0-.48.22-.48.48v1.7c0,.27-.22.48-.48.48h-5.33c-1.58,0-3,1.18-3.07,2.76-.07,1.65,1.25,3.02,2.89,3.02h5.52c.27,0,.48.22.48.48v1.7c0,.27.22.48.48.48h10.15c.27,0,.48-.22.48-.48Z"/>
    <path class="cls-20" d="M42.06,120.41v-10.15c0-.27-.22-.48-.48-.48h-10.15c-.27,0-.48.22-.48.48v1.7c0,.27-.22.48-.48.48h-5.33c-1.58,0-3,1.18-3.07,2.76-.07,1.65,1.25,3.02,2.89,3.02h5.52c.27,0,.48.22.48.48v1.7c0,.27.22.48.48.48h10.15c.27,0,.48-.22.48-.48Z"/>
    <path class="cls-28" d="M42.06,143.07v-10.15c0-.27-.22-.48-.48-.48h-10.15c-.27,0-.48.22-.48.48v1.7c0,.27-.22.48-.48.48h-5.33c-1.58,0-3,1.18-3.07,2.76-.07,1.65,1.25,3.02,2.89,3.02h5.52c.27,0,.48.22.48.48v1.7c0,.27.22.48.48.48h10.15c.27,0,.48-.22.48-.48Z"/>
    <path class="cls-29" d="M42.06,165.74v-10.15c0-.27-.22-.48-.48-.48h-10.15c-.27,0-.48.22-.48.48v1.7c0,.27-.22.48-.48.48h-5.33c-1.58,0-3,1.18-3.07,2.76-.07,1.65,1.25,3.02,2.89,3.02h5.52c.27,0,.48.22.48.48v1.7c0,.27.22.48.48.48h10.15c.27,0,.48-.22.48-.48Z"/>
  </g>
  <g>
    <path class="cls-10" d="M186.5,154.26v10.15c0,.27.22.48.48.48h10.15c.27,0,.48-.22.48-.48v-1.7c0-.27.22-.48.48-.48h5.33c1.58,0,3-1.18,3.07-2.76.07-1.65-1.25-3.02-2.89-3.02h-5.52c-.27,0-.48-.22-.48-.48v-1.7c0-.27-.22-.48-.48-.48h-10.15c-.27,0-.48.22-.48.48Z"/>
    <path class="cls-14" d="M186.5,131.59v10.15c0,.27.22.48.48.48h10.15c.27,0,.48-.22.48-.48v-1.7c0-.27.22-.48.48-.48h5.33c1.58,0,3-1.18,3.07-2.76.07-1.65-1.25-3.02-2.89-3.02h-5.52c-.27,0-.48-.22-.48-.48v-1.7c0-.27-.22-.48-.48-.48h-10.15c-.27,0-.48.22-.48.48Z"/>
    <path class="cls-24" d="M186.5,108.93v10.15c0,.27.22.48.48.48h10.15c.27,0,.48-.22.48-.48v-1.7c0-.27.22-.48.48-.48h5.33c1.58,0,3-1.18,3.07-2.76.07-1.65-1.25-3.02-2.89-3.02h-5.52c-.27,0-.48-.22-.48-.48v-1.7c0-.27-.22-.48-.48-.48h-10.15c-.27,0-.48.22-.48.48Z"/>
    <path class="cls-3" d="M186.5,86.26v10.15c0,.27.22.48.48.48h10.15c.27,0,.48-.22.48-.48v-1.7c0-.27.22-.48.48-.48h5.33c1.58,0,3-1.18,3.07-2.76.07-1.65-1.25-3.02-2.89-3.02h-5.52c-.27,0-.48-.22-.48-.48v-1.7c0-.27-.22-.48-.48-.48h-10.15c-.27,0-.48.22-.48.48Z"/>
    <path class="cls-22" d="M186.5,63.59v10.15c0,.27.22.48.48.48h10.15c.27,0,.48-.22.48-.48v-1.7c0-.27.22-.48.48-.48h5.33c1.58,0,3-1.18,3.07-2.76.07-1.65-1.25-3.02-2.89-3.02h-5.52c-.27,0-.48-.22-.48-.48v-1.7c0-.27-.22-.48-.48-.48h-10.15c-.27,0-.48.22-.48.48Z"/>
  </g>
  <path class="cls-5" d="M80.6,151.44c0,3.56-2.89,6.44-6.44,6.44s-6.44-2.89-6.44-6.44,2.89-6.44,6.44-6.44,6.44,2.89,6.44,6.44Z"/>
  <path class="cls-16" d="M109.81,136.36c.5,0,.99.03,1.47.08v-19.55h-23.42c-1.48,0-2.68-1.2-2.68-2.68v-1.38c1.29-1.56,1.95-3.67,1.57-5.93-.5-2.93-2.82-5.32-5.73-5.89-4.68-.91-8.77,2.65-8.77,7.16,0,1.77.63,3.39,1.68,4.66v1.38c0,1.48-1.2,2.68-2.68,2.68h-23.42v50.72c0,7.03,5.7,12.72,12.72,12.72h50.72v-16.67c-.48.05-.97.08-1.47.08-7.56,0-13.69-6.13-13.69-13.69s6.13-13.69,13.69-13.69ZM91.61,152.02c0,.44-.36.81-1.06.81h-2.27c-.45,0-.83.34-.9.79-.24,1.43-.7,2.79-1.36,4.03-.19.36-.14.8.15,1.09l1.58,1.58c.36.36.36.93,0,1.29l-2.13,2.14c-.36.36-.93.36-1.29,0l-1.26-1.26c-.32-.32-.82-.35-1.19-.08-1.26.89-2.69,1.58-4.22,1.99-.4.11-.69.46-.69.88v1.68c0,.5-.41.91-.91.91h-3.13c-.44,0-.81-.36-.81-.99v-1.44c0-.44-.31-.8-.74-.89-1.6-.34-3.09-.96-4.42-1.81-.37-.24-.84-.2-1.15.11l-1.16,1.16c-.36.36-.93.36-1.29,0l-2.14-2.13c-.36-.36-.36-.93,0-1.29l1.25-1.25c.3-.3.34-.76.13-1.12-.75-1.29-1.29-2.71-1.58-4.23-.08-.44-.45-.77-.9-.77h-2.11c-.5,0-.91-.41-.91-.91v-3.02c0-.5.41-.91.91-.91h2.46c.39,0,.73-.27.84-.65.38-1.33.97-2.57,1.72-3.69.25-.37.22-.85-.1-1.17l-1.97-1.97c-.36-.36-.36-.93,0-1.29l2.13-2.14c.36-.36.93-.36,1.49.2l1.96,1.96c.29.29.74.34,1.11.14,1.05-.59,2.18-1.04,3.38-1.33.42-.1.72-.46.72-.89v-3.29c0-.5.41-.91.91-.91h3.02c.5,0,.91.41.91.91v3.29c0,.43.3.78.72.88,1.16.28,2.27.71,3.29,1.27.36.2.81.15,1.1-.14l2.37-2.37c.36-.36.93-.36,1.29,0l2.14,2.13c.36.36.36.93,0,1.29l-2.15,2.15c-.32.32-.35.81-.09,1.18.7,1.03,1.25,2.15,1.65,3.36.13.4.49.68.91.68h2.89c.5,0,.91.41.91.91v3.13Z"/>
  <path class="cls-32" d="M108.44,133.58v-13.85h-20.58c-3.04,0-5.51-2.47-5.51-5.51v-2.4l.65-.79c.84-1.02,1.18-2.32.96-3.65-.3-1.77-1.73-3.24-3.48-3.58-.31-.06-.62-.09-.92-.09-2.47,0-4.47,2.01-4.47,4.47,0,1.05.35,2.04,1.02,2.85l.65.79v2.4c0,3.04-2.47,5.51-5.51,5.51h-20.58v47.89c0,5.45,4.43,9.89,9.89,9.89h47.89v-10.98c-8.48-.7-15.16-7.82-15.16-16.47s6.69-15.78,15.16-16.47ZM91.61,152.02c0,.44-.36.81-1.06.81h-2.27c-.45,0-.83.34-.9.79-.24,1.43-.7,2.79-1.36,4.03-.19.36-.14.8.15,1.09l1.58,1.58c.36.36.36.93,0,1.29l-2.13,2.14c-.36.36-.93.36-1.29,0l-1.26-1.26c-.32-.32-.82-.35-1.19-.08-1.26.89-2.69,1.58-4.22,1.99-.4.11-.69.46-.69.88v1.68c0,.5-.41.91-.91.91h-3.13c-.44,0-.81-.36-.81-.99v-1.44c0-.44-.31-.8-.74-.89-1.6-.34-3.09-.96-4.42-1.81-.37-.24-.84-.2-1.15.11l-1.16,1.16c-.36.36-.93.36-1.29,0l-2.14-2.13c-.36-.36-.36-.93,0-1.29l1.25-1.25c.3-.3.34-.76.13-1.12-.75-1.29-1.29-2.71-1.58-4.23-.08-.44-.45-.77-.9-.77h-2.11c-.5,0-.91-.41-.91-.91v-3.02c0-.5.41-.91.91-.91h2.46c.39,0,.73-.27.84-.65.38-1.33.97-2.57,1.72-3.69.25-.37.22-.85-.1-1.17l-1.97-1.97c-.36-.36-.36-.93,0-1.29l2.13-2.14c.36-.36.93-.36,1.49.2l1.96,1.96c.29.29.74.34,1.11.14,1.05-.59,2.18-1.04,3.38-1.33.42-.1.72-.46.72-.89v-3.29c0-.5.41-.91.91-.91h3.02c.5,0,.91.41.91.91v3.29c0,.43.3.78.72.88,1.16.28,2.27.71,3.29,1.27.36.2.81.15,1.1-.14l2.37-2.37c.36-.36.93-.36,1.29,0l2.14,2.13c.36.36.36.93,0,1.29l-2.15,2.15c-.32.32-.35.81-.09,1.18.7,1.03,1.25,2.15,1.65,3.36.13.4.49.68.91.68h2.89c.5,0,.91.41.91.91v3.13Z"/>
  <path class="cls-13" d="M159.94,78.79c0,3.56-2.89,6.44-6.44,6.44s-6.44-2.89-6.44-6.44,2.89-6.44,6.44-6.44,6.44,2.89,6.44,6.44Z"/>
  <path class="cls-18" d="M167.78,47.67h-50.72v18.23c.73-.12,1.48-.2,2.25-.2,7.56,0,13.69,6.13,13.69,13.69s-6.13,13.69-13.69,13.69c-.77,0-1.52-.08-2.25-.2v18.23h23.42c1.48,0,2.68,1.2,2.68,2.68v1.38c-1.29,1.56-1.95,3.67-1.57,5.93.5,2.93,2.82,5.32,5.73,5.89,4.68.91,8.77-2.65,8.77-7.16,0-1.77-.63-3.39-1.68-4.66v-1.38c0-1.48,1.2-2.68,2.68-2.68h23.42v-50.72c0-7.03-5.7-12.72-12.72-12.72ZM170.34,80.16c0,.43-.35.78-1.02.78h-2.19c-.44,0-.8.33-.87.76-.23,1.38-.68,2.69-1.31,3.89-.18.35-.13.77.15,1.05l1.52,1.52c.34.34.34.9,0,1.25l-2.06,2.06c-.34.34-.9.34-1.25,0l-1.21-1.21c-.31-.31-.79-.33-1.15-.08-1.22.86-2.59,1.52-4.08,1.92-.39.11-.67.45-.67.85v1.62c0,.49-.39.88-.88.88h-3.02c-.43,0-.78-.35-.78-.95v-1.39c0-.42-.3-.77-.72-.86-1.54-.33-2.98-.92-4.27-1.75-.36-.23-.81-.19-1.11.11l-1.12,1.12c-.34.34-.9.34-1.25,0l-2.06-2.06c-.34-.34-.34-.9,0-1.25l1.2-1.2c.29-.29.33-.73.12-1.08-.73-1.24-1.25-2.62-1.53-4.08-.08-.42-.44-.74-.87-.74h-2.03c-.49,0-.88-.39-.88-.88v-2.91c0-.49.39-.88.88-.88h2.37c.38,0,.7-.26.81-.62.37-1.28.93-2.48,1.66-3.56.24-.36.21-.82-.1-1.13l-1.91-1.91c-.34-.34-.34-.9,0-1.25l2.06-2.06c.34-.34.9-.35,1.44.19l1.89,1.89c.28.28.72.33,1.07.13,1.01-.57,2.11-1,3.26-1.28.4-.1.7-.44.7-.86v-3.17c0-.49.39-.88.88-.88h2.91c.49,0,.88.39.88.88v3.18c0,.41.29.76.69.85,1.12.27,2.19.69,3.17,1.23.35.19.78.14,1.06-.14l2.29-2.29c.34-.34.9-.34,1.25,0l2.06,2.06c.34.34.34.9,0,1.25l-2.07,2.07c-.31.3-.33.78-.09,1.14.67.99,1.21,2.08,1.59,3.24.13.39.47.66.88.66h2.79c.49,0,.88.39.88.88v3.02Z"/>
  <path class="cls-12" d="M167.78,50.5h-47.89v12.37c8.85.31,15.95,7.6,15.95,16.52s-7.1,16.21-15.95,16.52v12.37h20.58c3.04,0,5.51,2.47,5.51,5.51v2.4l-.65.79c-.84,1.02-1.18,2.32-.96,3.65.3,1.77,1.73,3.24,3.48,3.58.31.06.62.09.92.09,2.47,0,4.47-2.01,4.47-4.47,0-1.05-.35-2.04-1.02-2.85l-.65-.79v-2.4c0-3.04,2.47-5.51,5.51-5.51h20.58v-47.89c0-5.45-4.44-9.89-9.89-9.89ZM170.34,80.16c0,.43-.35.78-1.02.78h-2.19c-.44,0-.8.33-.87.76-.23,1.38-.68,2.69-1.31,3.89-.18.35-.13.77.15,1.05l1.52,1.52c.34.34.34.9,0,1.25l-2.06,2.06c-.34.34-.9.34-1.25,0l-1.21-1.21c-.31-.31-.79-.33-1.15-.08-1.22.86-2.59,1.52-4.08,1.92-.39.11-.67.45-.67.85v1.62c0,.49-.39.88-.88.88h-3.02c-.43,0-.78-.35-.78-.95v-1.39c0-.42-.3-.77-.72-.86-1.54-.33-2.98-.92-4.27-1.75-.36-.23-.81-.19-1.11.11l-1.12,1.12c-.34.34-.9.34-1.25,0l-2.06-2.06c-.34-.34-.34-.9,0-1.25l1.2-1.2c.29-.29.33-.73.12-1.08-.73-1.24-1.25-2.62-1.53-4.08-.08-.42-.44-.74-.87-.74h-2.03c-.49,0-.88-.39-.88-.88v-2.91c0-.49.39-.88.88-.88h2.37c.38,0,.7-.26.81-.62.37-1.28.93-2.48,1.66-3.56.24-.36.21-.82-.1-1.13l-1.91-1.91c-.34-.34-.34-.9,0-1.25l2.06-2.06c.34-.34.9-.35,1.44.19l1.89,1.89c.28.28.72.33,1.07.13,1.01-.57,2.11-1,3.26-1.28.4-.1.7-.44.7-.86v-3.17c0-.49.39-.88.88-.88h2.91c.49,0,.88.39.88.88v3.18c0,.41.29.76.69.85,1.12.27,2.19.69,3.17,1.23.35.19.78.14,1.06-.14l2.29-2.29c.34-.34.9-.34,1.25,0l2.06,2.06c.34.34.34.9,0,1.25l-2.07,2.07c-.31.31-.33.78-.09,1.14.67.99,1.21,2.08,1.59,3.24.13.39.47.66.88.66h2.79c.49,0,.88.39.88.88v3.02Z"/>
  <path class="cls-19" d="M119.98,72.08c-1.77,0-3.39.63-4.66,1.68h-1.38c-1.48,0-2.68-1.2-2.68-2.68v-23.42h-50.72c-7.03,0-12.72,5.7-12.72,12.72v50.72h18.03c.05-7.52,6.16-13.61,13.69-13.61s13.64,6.09,13.69,13.61h18.03v-23.42c0-1.48,1.2-2.68,2.68-2.68h1.38c1.56,1.29,3.67,1.95,5.93,1.57,2.93-.5,5.32-2.82,5.89-5.73.91-4.68-2.65-8.77-7.16-8.77ZM89.89,67.22h-14.95v6.28h12.62v5.28h-12.62v6.44h14.95v4.32h-22.08v-27.9h22.08v5.57Z"/>
  <g>
    <path class="cls-17" d="M155.5,155.61c-1.07-.78-2.54-1.16-4.41-1.16h-7.82v8.91h7.82c1.87,0,3.34-.39,4.41-1.18,1.07-.79,1.6-1.88,1.6-3.28s-.53-2.52-1.6-3.29Z"/>
    <path class="cls-7" d="M154.29,149.94c.92-.68,1.38-1.62,1.38-2.84s-.47-2.21-1.41-2.89c-.94-.69-2.19-1.03-3.78-1.03h-7.22v7.78h7.22c1.61,0,2.88-.34,3.81-1.01Z"/>
    <path class="cls-31" d="M162.11,116.89c.23.99.36,2.02.36,3.08,0,7.56-6.13,13.69-13.69,13.69s-13.69-6.13-13.69-13.69c0-1.06.13-2.09.36-3.08h-18.39v23.42c0,1.48-1.2,2.68-2.68,2.68h-1.38c-1.56-1.29-3.67-1.95-5.93-1.57-2.93.5-5.32,2.82-5.89,5.73-.91,4.68,2.65,8.77,7.16,8.77,1.77,0,3.39-.63,4.66-1.68h1.38c1.48,0,2.68,1.2,2.68,2.68v23.42h50.72c7.03,0,12.72-5.7,12.72-12.72v-50.72h-18.39ZM161.54,163.19c-.84,1.15-2.01,2.04-3.52,2.68-1.52.63-3.26.95-5.25.95h-15.17v-27.13h14.57c1.81,0,3.42.29,4.82.88,1.4.59,2.48,1.41,3.26,2.48.78,1.06,1.17,2.29,1.17,3.69s-.48,2.69-1.45,3.67c-.97.99-2.29,1.69-3.96,2.11,2.07.42,3.72,1.21,4.95,2.36,1.22,1.15,1.84,2.58,1.84,4.29,0,1.53-.41,2.87-1.25,4.02Z"/>
  </g>
  <path class="cls-6" d="M165.31,119.72c0,.08,0,.16,0,.24,0,9.11-7.42,16.53-16.53,16.53s-16.53-7.41-16.53-16.53c0-.08,0-.16,0-.24h-12.36v20.58c0,3.04-2.47,5.51-5.51,5.51h-2.4l-.79-.65c-.81-.67-1.79-1.02-2.85-1.02-.26,0-.54.02-.8.07-1.77.3-3.24,1.73-3.58,3.48-.27,1.38.06,2.72.93,3.77.85,1.04,2.11,1.63,3.45,1.63,1.05,0,2.04-.35,2.85-1.02l.79-.65h2.4c3.04,0,5.51,2.47,5.51,5.51v20.58h47.89c5.45,0,9.89-4.43,9.89-9.89v-47.89h-12.36ZM161.54,163.19c-.84,1.15-2.01,2.04-3.52,2.68-1.52.63-3.26.95-5.25.95h-15.17v-27.13h14.57c1.81,0,3.42.29,4.82.88,1.4.59,2.48,1.41,3.26,2.48.78,1.06,1.17,2.29,1.17,3.69s-.48,2.69-1.45,3.67c-.97.99-2.29,1.69-3.96,2.11,2.07.42,3.72,1.21,4.95,2.36,1.22,1.15,1.84,2.58,1.84,4.29,0,1.53-.41,2.87-1.25,4.02Z"/>
  <path class="cls-21" d="M123.44,76.55c-.85-1.04-2.11-1.63-3.45-1.63-1.05,0-2.04.35-2.85,1.03l-.79.65h-2.4c-3.04,0-5.51-2.47-5.51-5.51v-20.58h-47.89c-5.45,0-9.89,4.44-9.89,9.89v47.89h12.62c1.39-7.72,8.17-13.61,16.27-13.61s14.88,5.89,16.27,13.61h12.62v-20.58c0-3.04,2.47-5.51,5.51-5.51h2.4l.79.65c.81.67,1.79,1.02,2.85,1.02.26,0,.54-.02.8-.07,1.77-.3,3.24-1.73,3.58-3.48.27-1.38-.06-2.72-.93-3.77ZM89.89,67.22h-14.95v6.28h12.62v5.28h-12.62v6.44h14.95v4.32h-22.08v-27.9h22.08v5.57Z"/>
</svg>